<svg xmlns="http://www.w3.org/2000/svg" width="14" height="12" viewBox="0 0 14 12" fill="none">
  <path d="M12.9393 0.500048H11.2777V1.75005C11.2777 1.87043 11.254 1.98963 11.2081 2.10084C11.1622 2.21206 11.0948 2.31311 11.01 2.39823C10.9251 2.48335 10.8244 2.55087 10.7135 2.59694C10.6026 2.643 10.4838 2.66671 10.3637 2.66671C10.2437 2.66671 10.1249 2.643 10.014 2.59694C9.90312 2.55087 9.80237 2.48335 9.7175 2.39823C9.63264 2.31311 9.56532 2.21206 9.51939 2.10084C9.47346 1.98963 9.44982 1.87043 9.44982 1.75005V0.500048H4.61019V1.75005C4.61019 1.99316 4.5139 2.22632 4.3425 2.39823C4.17111 2.57014 3.93865 2.66671 3.69626 2.66671C3.45388 2.66671 3.22142 2.57014 3.05002 2.39823C2.87863 2.22632 2.78234 1.99316 2.78234 1.75005V0.500048H1.12066C1.0218 0.49892 0.923722 0.517687 0.832219 0.555241C0.740717 0.592794 0.657651 0.648371 0.587936 0.718684C0.518221 0.788997 0.463272 0.872618 0.426338 0.964602C0.389405 1.05659 0.371237 1.15507 0.37291 1.25421V10.5792C0.371259 10.6766 0.388755 10.7734 0.424399 10.864C0.460043 10.9546 0.513135 11.0373 0.580645 11.1073C0.648154 11.1774 0.728757 11.2334 0.817851 11.2722C0.906945 11.311 1.00278 11.3318 1.09989 11.3334H12.9393C13.0364 11.3318 13.1323 11.311 13.2214 11.2722C13.3105 11.2334 13.3911 11.1774 13.4586 11.1073C13.5261 11.0373 13.5792 10.9546 13.6148 10.864C13.6505 10.7734 13.668 10.6766 13.6663 10.5792V1.25421C13.668 1.15681 13.6505 1.06004 13.6148 0.969424C13.5792 0.878806 13.5261 0.796119 13.4586 0.726086C13.3911 0.656052 13.3105 0.600044 13.2214 0.56126C13.1323 0.522476 13.0364 0.501676 12.9393 0.500048ZM3.69626 8.83338H2.86542V8.00005H3.69626V8.83338ZM3.69626 6.75005H2.86542V5.91671H3.69626V6.75005ZM3.69626 4.66671H2.86542V3.83338H3.69626V4.66671ZM6.18878 8.83338H5.35794V8.00005H6.18878V8.83338ZM6.18878 6.75005H5.35794V5.91671H6.18878V6.75005ZM6.18878 4.66671H5.35794V3.83338H6.18878V4.66671ZM8.68129 8.83338H7.85045V8.00005H8.68129V8.83338ZM8.68129 6.75005H7.85045V5.91671H8.68129V6.75005ZM8.68129 4.66671H7.85045V3.83338H8.68129V4.66671ZM11.1738 8.83338H10.343V8.00005H11.1738V8.83338ZM11.1738 6.75005H10.343V5.91671H11.1738V6.75005ZM11.1738 4.66671H10.343V3.83338H11.1738V4.66671Z" fill="#C9C9C9"/>
</svg>